<?xml version="1.0" standalone="no"?>
<!DOCTYPE svg PUBLIC "-//W3C//DTD SVG 20010904//EN"
 "http://www.w3.org/TR/2001/REC-SVG-20010904/DTD/svg10.dtd">
<svg version="1.0" xmlns="http://www.w3.org/2000/svg"
 width="874.000000pt" height="329.000000pt" viewBox="0 0 874.000000 329.000000"
 preserveAspectRatio="xMidYMid meet">

<g transform="translate(0.000000,329.000000) scale(0.100000,-0.100000)"
fill="#000000" stroke="none">
<path d="M1328 3159 c-12 -6 -18 -22 -18 -45 0 -40 -18 -80 -49 -108 l-21 -19
0 54 c0 30 -5 60 -12 67 -18 18 -67 14 -98 -8 -38 -27 -80 -114 -80 -165 l0
-42 -102 -27 c-158 -42 -148 -42 -188 0 -139 149 -432 79 -523 -124 -33 -75
-29 -161 11 -245 l34 -68 -45 -87 c-76 -149 -114 -290 -127 -477 -29 -395 96
-691 377 -891 123 -89 297 -154 408 -153 l50 0 -84 25 c-174 51 -303 126 -435
253 -174 167 -248 344 -262 626 -5 87 -2 153 10 239 64 451 302 721 778 882
101 34 102 34 120 14 10 -11 21 -20 23 -20 2 0 1 25 -2 55 -7 64 14 129 51
164 38 36 59 24 69 -37 9 -56 18 -61 59 -34 36 24 63 60 78 105 11 35 15 38
39 32 44 -11 88 -52 106 -100 l18 -44 19 25 c28 35 90 64 136 64 l39 0 7 -48
c7 -51 -6 -138 -25 -173 -15 -29 -4 -34 20 -10 25 25 34 26 51 6 7 -9 100 -82
207 -162 212 -160 301 -246 350 -338 128 -241 157 -592 72 -879 -66 -223 -222
-413 -414 -506 -100 -48 -230 -91 -251 -83 -8 3 -25 -3 -37 -14 -103 -92 -310
-130 -514 -94 -68 12 -182 67 -191 92 -2 5 -8 9 -13 9 -19 0 24 -50 67 -79 65
-42 168 -65 299 -66 131 0 222 24 306 81 32 21 85 44 129 56 245 64 380 142
505 289 105 124 189 309 221 488 18 101 18 288 -1 393 -16 92 -65 242 -96 296
-23 40 -24 65 -3 82 8 8 27 34 42 59 24 41 27 56 27 141 0 104 -10 130 -67
196 -75 85 -230 120 -336 74 -48 -21 -91 -59 -118 -106 -11 -18 -12 -18 -48 1
-21 11 -64 43 -96 72 l-57 52 9 51 c5 27 5 76 1 108 -8 56 -9 57 -42 60 -57 6
-98 -7 -148 -45 -26 -20 -49 -31 -51 -25 -10 32 -52 79 -87 99 -44 25 -70 28
-97 12z"/>
<path d="M1102 2570 c13 -20 28 -27 28 -12 0 10 -22 32 -32 32 -5 0 -3 -9 4
-20z"/>
<path d="M766 2499 c-21 -5 -67 -23 -101 -39 -216 -103 -348 -333 -349 -605 0
-119 20 -188 70 -241 32 -35 36 -36 89 -32 46 4 62 11 102 45 91 76 102 79
320 74 93 -2 119 1 155 17 53 24 97 71 134 142 27 50 29 64 29 160 -1 227
-102 427 -240 473 -52 18 -146 21 -209 6z m119 -331 l20 -20 -24 12 c-14 7
-44 10 -73 8 -53 -6 -88 -31 -115 -81 -25 -49 -27 -21 -2 30 30 60 76 87 134
78 22 -3 49 -15 60 -27z"/>
<path d="M1695 2492 c-63 -21 -128 -84 -161 -157 -59 -127 -90 -451 -51 -522
26 -49 55 -63 156 -74 118 -13 159 -28 240 -88 91 -67 122 -81 181 -81 45 0
54 4 89 39 43 43 94 141 110 211 16 67 13 185 -5 259 -75 303 -328 490 -559
413z m197 -323 c27 -19 53 -78 45 -102 -2 -6 -14 7 -26 30 -11 24 -32 50 -45
58 -26 17 -79 22 -115 10 -16 -5 -21 -4 -17 4 11 16 67 30 101 24 17 -3 42
-14 57 -24z"/>
<path d="M7877 2483 c-3 -4 -8 -79 -12 -165 l-8 -158 -122 0 c-94 0 -124 3
-128 13 -7 18 -124 38 -136 23 -5 -6 -12 -31 -16 -56 -4 -25 -20 -88 -36 -140
-38 -127 -38 -134 10 -148 21 -7 45 -12 54 -12 20 0 60 68 83 140 25 82 27 83
125 71 46 -6 213 -11 372 -11 235 0 289 -3 293 -14 3 -7 -2 -41 -10 -74 -9
-33 -16 -64 -16 -70 0 -5 19 -12 43 -16 23 -4 56 -9 73 -12 29 -5 32 -3 46 33
20 48 41 170 37 203 -4 22 -11 26 -74 37 -38 7 -142 15 -230 18 -88 4 -169 8
-180 10 -18 4 -20 13 -23 107 -1 57 -6 130 -10 163 l-7 60 -62 3 c-34 2 -63
-1 -66 -5z"/>
<path d="M8207 2415 l-78 -74 38 -36 c20 -19 45 -35 55 -35 54 0 158 90 158
135 -1 12 -19 33 -45 53 -24 17 -45 32 -47 32 -2 -1 -38 -34 -81 -75z"/>
<path d="M7582 2438 c-27 -17 -32 -25 -27 -45 8 -35 47 -93 89 -133 l36 -34
50 49 c28 27 49 52 48 55 -8 16 -139 130 -150 130 -7 0 -28 -10 -46 -22z"/>
<path d="M3000 2423 c0 -5 -2 -75 -3 -158 -2 -82 -14 -351 -27 -597 -13 -246
-21 -450 -17 -454 3 -4 77 -18 164 -31 266 -41 945 -43 986 -4 18 17 30 462
22 824 l-7 368 -24 9 c-13 5 -236 11 -495 13 -424 4 -473 6 -481 21 -7 12 -23
16 -63 16 -30 0 -55 -3 -55 -7z m560 -133 c151 -6 307 -13 347 -17 l72 -6 -5
-271 c-6 -286 -28 -713 -37 -722 -17 -18 -618 16 -777 44 -45 8 -45 8 -44 47
0 22 6 108 14 190 9 104 11 240 7 447 -3 163 -3 298 -1 301 2 2 37 2 77 0 39
-1 196 -8 347 -13z"/>
<path d="M3615 2143 c-137 -8 -301 -25 -308 -32 -4 -5 -5 -31 -1 -60 l7 -51
87 0 c97 0 299 31 356 55 34 14 36 18 30 46 -3 17 -6 35 -6 40 0 9 -52 9 -165
2z"/>
<path d="M3476 1948 c-3 -18 -7 -49 -8 -68 l-3 -35 -85 0 -85 0 3 -45 c2 -25
8 -50 14 -57 5 -7 40 -13 76 -15 l67 -3 -4 -59 c-5 -98 -6 -100 -89 -97 -78 3
-77 3 -84 -74 -3 -28 0 -31 47 -43 75 -21 359 -27 410 -9 39 14 40 15 43 65
l3 52 -102 0 -101 0 7 68 c11 105 12 106 128 117 37 4 68 11 68 16 1 5 2 16 2
24 0 55 2 54 -80 57 l-78 3 3 55 4 55 -66 13 c-87 16 -84 17 -90 -20z"/>
<path d="M3690 1694 c-6 -15 -9 -34 -8 -43 3 -16 73 -61 95 -61 16 0 57 80 46
90 -4 3 -28 12 -52 19 -23 7 -49 15 -57 18 -9 3 -18 -5 -24 -23z"/>
<path d="M6385 2360 c-8 -13 -34 -362 -35 -466 0 -85 -7 -82 168 -94 63 -4
118 -12 123 -17 6 -6 9 -39 7 -74 l-3 -64 -151 3 -152 4 -12 -37 c-10 -30 -10
-39 0 -45 15 -9 154 -36 245 -48 l60 -7 3 -223 2 -223 83 3 82 3 0 220 0 220
153 6 c84 4 155 9 159 12 3 3 1 32 -3 64 l-9 58 -152 -4 -152 -3 -6 24 c-4 14
-5 44 -3 68 4 55 11 58 174 59 103 1 123 4 128 17 7 18 -11 510 -20 533 -3 11
-55 13 -287 12 -155 -1 -307 1 -338 4 -38 5 -59 3 -64 -5z m243 -96 c21 -6 23
-11 20 -73 -3 -62 -4 -66 -28 -69 -67 -7 -71 -10 -68 -50 3 -36 4 -37 48 -42
l45 -5 0 -55 0 -55 -47 -3 c-88 -6 -88 -5 -88 182 0 89 3 166 7 169 8 9 80 9
111 1z m316 -177 c0 -108 -5 -171 -11 -175 -6 -4 -43 -6 -82 -4 l-71 4 0 58 0
57 41 6 c22 3 42 7 44 9 2 2 5 21 7 43 l3 40 -45 3 c-24 2 -48 9 -52 15 -10
15 -10 101 -1 111 4 4 43 5 88 4 l80 -3 -1 -168z"/>
<path d="M5868 2226 c-16 -19 -28 -38 -28 -41 0 -16 143 -175 157 -175 11 0
103 97 103 108 0 21 -162 142 -190 142 -8 0 -27 -16 -42 -34z"/>
<path d="M5080 2216 c-4 -12 -11 -44 -14 -72 l-7 -51 58 -16 c45 -13 102 -17
240 -17 l181 0 11 31 c6 18 11 42 11 55 0 26 4 25 -185 49 -66 8 -158 21 -203
28 -82 14 -84 13 -92 -7z"/>
<path d="M4244 2113 c-3 -16 -10 -42 -14 -60 -4 -17 -6 -34 -3 -37 3 -3 74 -2
158 1 104 4 154 3 159 -5 3 -6 -9 -43 -29 -82 l-34 -72 28 -42 c16 -23 34 -60
41 -82 10 -35 10 -46 -4 -72 -13 -25 -23 -32 -46 -32 -23 0 -31 5 -36 25 -6
23 -10 25 -69 25 l-64 0 -5 -42 c-27 -225 -32 -318 -20 -365 6 -22 12 -23 91
-23 l85 0 -3 128 -3 127 56 -3 c44 -3 67 1 100 18 60 30 81 63 86 131 5 68
-10 121 -49 171 -16 20 -29 39 -29 42 0 4 29 49 65 101 36 53 65 104 65 114 0
16 -13 20 -92 30 -167 20 -298 31 -363 31 -62 0 -65 -1 -71 -27z"/>
<path d="M7718 1938 c-13 -10 -18 -43 -23 -160 l-7 -148 28 -12 c40 -16 414
-24 443 -9 18 10 21 20 20 79 0 37 -6 108 -12 157 l-12 90 -45 7 c-84 12 -375
9 -392 -4z m295 -97 c4 -4 7 -41 5 -82 l-3 -74 -65 3 c-113 4 -110 2 -110 86
0 40 3 76 8 80 9 10 154 -2 165 -13z"/>
<path d="M5490 1894 c-69 -6 -236 -15 -372 -20 l-248 -7 0 -47 0 -47 58 -11
c31 -7 106 -16 165 -22 60 -5 112 -12 118 -15 5 -4 9 -52 9 -108 1 -93 5 -141
25 -278 l7 -46 -62 -6 c-34 -3 -66 -9 -70 -14 -3 -4 -5 -29 -2 -55 3 -40 7
-47 30 -53 44 -11 234 -7 246 5 7 7 12 103 15 286 4 316 -13 279 131 288 47 3
108 12 135 19 l50 12 -3 44 c-2 24 -8 55 -13 68 -10 27 -22 27 -219 7z"/>
<path d="M5875 1888 c-60 -5 -113 -12 -118 -17 -5 -5 -11 -27 -14 -50 l-6 -41
35 0 c19 0 62 -3 95 -6 l60 -7 6 -221 c3 -121 8 -229 13 -240 13 -32 102 -16
211 39 50 26 94 53 97 61 9 25 -32 96 -52 90 -63 -18 -105 -27 -109 -22 -3 3
0 93 7 200 7 107 10 202 7 211 -7 17 -52 18 -232 3z"/>
<path d="M1153 1614 c-15 -23 -14 -28 2 -64 24 -54 56 -81 103 -87 73 -10 165
56 165 118 0 45 -22 53 -146 55 -104 2 -108 2 -124 -22z"/>
<path d="M4932 1548 c-28 -24 -71 -55 -96 -70 -25 -15 -46 -31 -46 -37 0 -20
86 -111 106 -111 37 0 97 52 151 131 l32 46 -33 29 c-68 60 -59 59 -114 12z"/>
<path d="M5564 1581 c-19 -13 -64 -80 -64 -95 0 -34 154 -137 228 -152 29 -6
32 -4 61 55 17 33 31 65 31 71 0 6 -17 18 -37 26 -20 9 -76 35 -123 59 -48 23
-91 40 -96 36z"/>
<path d="M7875 1538 c-2 -7 -6 -33 -7 -57 l-3 -45 -65 3 c-36 2 -76 4 -90 5
-24 1 -25 -2 -28 -55 -3 -67 -2 -68 113 -78 l80 -6 0 -65 0 -65 -135 -5 -135
-5 0 -45 0 -45 100 -17 c209 -37 416 -34 522 8 48 19 52 26 46 72 l-5 32 -124
0 -124 0 0 44 c0 24 3 57 6 74 6 28 9 30 67 37 78 8 97 19 97 53 0 42 -17 52
-87 52 l-63 0 0 45 c0 52 -8 58 -103 69 -42 4 -59 3 -62 -6z"/>
<path d="M6370 1399 c-47 -33 -100 -67 -117 -76 -18 -8 -33 -20 -33 -25 0 -12
53 -90 72 -106 20 -16 75 0 126 38 53 38 122 126 121 153 0 21 -41 62 -70 71
-8 3 -52 -22 -99 -55z"/>
<path d="M640 1435 c-10 -13 -10 -19 3 -33 8 -9 19 -35 23 -57 24 -129 131
-263 265 -331 68 -34 173 -61 270 -69 94 -8 274 7 365 30 88 22 201 83 264
142 67 61 133 180 136 244 1 22 7 46 13 52 6 6 11 17 11 25 0 10 -7 8 -25 -6
-14 -11 -42 -23 -62 -27 -21 -3 -79 -19 -129 -35 -140 -44 -202 -48 -302 -16
-100 31 -126 32 -234 6 -176 -43 -378 -36 -521 19 -61 23 -67 28 -62 48 6 27
2 29 -15 8z m621 -286 c14 -7 18 -16 14 -27 -17 -40 -17 -52 -2 -52 9 0 18 8
21 18 4 11 17 29 31 42 34 32 152 39 257 16 71 -16 138 -47 138 -64 0 -14 -64
-40 -152 -63 -111 -29 -411 -33 -498 -7 -114 35 -200 78 -200 99 0 18 86 49
156 57 76 8 204 -2 235 -19z"/>
<path d="M6947 1423 c-26 -18 -37 -34 -37 -51 0 -42 115 -212 144 -212 22 0
126 83 126 102 0 10 -4 18 -8 18 -4 0 -42 34 -83 76 -97 98 -98 99 -142 67z"/>
<path d="M4872 808 c6 -18 28 -21 28 -4 0 9 -7 16 -16 16 -9 0 -14 -5 -12 -12z"/>
<path d="M5905 808 c-10 -25 -1 -173 10 -171 13 4 19 163 6 176 -7 7 -12 5
-16 -5z"/>
<path d="M6477 813 c-13 -12 -8 -185 4 -181 8 3 11 33 10 93 -2 93 -3 99 -14
88z"/>
<path d="M2932 725 c2 -48 7 -85 13 -85 6 0 11 37 13 85 2 72 0 85 -13 85 -13
0 -15 -13 -13 -85z"/>
<path d="M3415 790 c-9 -14 -8 -114 1 -142 3 -10 12 -18 20 -18 16 0 19 16 4
25 -13 8 -13 78 -1 91 6 5 5 18 -3 33 -10 17 -15 20 -21 11z"/>
<path d="M4667 778 c-2 -13 -2 -50 2 -83 5 -49 10 -60 26 -64 16 -3 17 -1 6
12 -7 9 -12 37 -11 64 3 74 1 93 -9 93 -5 0 -11 -10 -14 -22z"/>
<path d="M647 763 c-24 -23 31 -93 73 -93 22 0 52 28 47 44 -10 32 -101 69
-120 49z"/>
<path d="M3196 761 c-3 -5 1 -11 9 -14 9 -4 15 -24 17 -57 2 -27 8 -51 13 -53
14 -3 18 74 6 106 -10 26 -34 36 -45 18z"/>
<path d="M3645 758 c-50 -27 -58 -66 -20 -103 18 -18 34 -25 62 -24 l38 1 -33
8 c-44 10 -56 23 -59 65 -1 25 3 38 17 45 22 12 50 3 50 -16 0 -8 7 -14 15
-14 22 0 18 17 -7 34 -26 19 -36 19 -63 4z"/>
<path d="M4175 760 c-3 -5 1 -10 9 -10 11 0 16 -14 18 -57 2 -34 8 -58 16 -61
16 -5 17 109 0 126 -15 15 -35 16 -43 2z"/>
<path d="M4453 759 c13 -8 17 -23 17 -64 0 -42 4 -55 15 -55 11 0 15 13 15 53
0 57 -12 77 -44 77 -19 -1 -19 -1 -3 -11z"/>
<path d="M5416 761 c-3 -5 1 -11 9 -14 9 -4 15 -24 17 -57 2 -27 8 -49 13 -48
12 4 15 87 3 111 -9 18 -33 23 -42 8z"/>
<path d="M5687 760 c20 -8 22 -16 20 -61 -2 -40 2 -53 15 -60 16 -9 18 -4 18
49 0 64 -11 82 -49 81 -25 0 -26 0 -4 -9z"/>
<path d="M6717 758 c18 -9 21 -17 19 -57 -3 -44 6 -71 25 -71 5 0 9 24 9 54 0
60 -17 86 -53 85 l-22 0 22 -11z"/>
<path d="M6932 758 c-23 -23 -13 -45 29 -62 33 -13 40 -21 36 -36 -7 -27 20
-26 28 0 6 20 -9 50 -26 50 -4 0 -19 4 -33 10 -30 11 -26 37 7 43 19 4 19 4
-3 6 -15 0 -31 -4 -38 -11z"/>
<path d="M7187 763 c-13 -3 -17 -12 -15 -31 2 -19 12 -28 37 -37 39 -13 49
-29 31 -51 -11 -12 -10 -13 4 -8 21 8 37 37 28 51 -4 6 -24 18 -45 27 -46 19
-44 42 3 39 23 -1 29 1 19 8 -15 9 -32 10 -62 2z"/>
<path d="M7980 761 c34 -9 53 -51 40 -86 -13 -34 -3 -47 16 -21 15 21 18 64 6
82 -10 16 -48 34 -69 33 -12 -1 -10 -3 7 -8z"/>
<path d="M8277 764 c-3 -4 0 -13 8 -21 9 -9 15 -34 15 -64 0 -68 16 -62 23 9
4 45 1 60 -11 70 -18 13 -26 15 -35 6z"/>
<path d="M8367 764 c-3 -4 0 -13 8 -21 9 -8 15 -33 15 -58 0 -24 5 -47 10 -50
6 -4 10 18 10 58 0 50 -4 66 -16 71 -19 7 -19 7 -27 0z"/>
<path d="M3128 695 c2 -36 7 -65 11 -65 9 0 22 110 15 122 -3 4 -11 8 -17 8
-8 0 -11 -19 -9 -65z"/>
<path d="M3888 695 c4 -74 21 -88 24 -20 1 25 2 53 2 62 1 10 -6 19 -14 21
-12 2 -14 -9 -12 -63z"/>
<path d="M4112 698 c3 -66 22 -88 25 -29 1 18 4 43 7 56 5 20 -8 35 -30 35 -3
0 -4 -28 -2 -62z"/>
<path d="M4870 726 c0 -49 11 -96 21 -90 5 3 9 32 9 65 0 46 -3 59 -15 59 -10
0 -15 -10 -15 -34z"/>
<path d="M5070 740 c-35 -35 -24 -75 29 -105 11 -6 10 -2 -2 16 -20 27 -22 80
-5 97 7 7 9 12 5 12 -4 0 -16 -9 -27 -20z"/>
<path d="M5153 745 c20 -19 22 -75 5 -94 -11 -11 -10 -13 2 -9 8 2 21 17 29
33 12 25 12 32 0 54 -8 14 -23 28 -34 30 -17 3 -18 2 -2 -14z"/>
<path d="M5350 701 c0 -33 5 -63 10 -66 9 -6 11 11 14 97 1 12 -5 23 -11 26
-10 3 -13 -13 -13 -57z"/>
<path d="M5635 750 c-3 -6 1 -7 9 -4 18 7 21 14 7 14 -6 0 -13 -4 -16 -10z"/>
<path d="M6217 742 c-31 -34 -12 -93 34 -105 l21 -6 -21 23 c-25 26 -27 68 -5
90 13 13 13 16 1 16 -8 0 -21 -8 -30 -18z"/>
<path d="M7426 698 c1 -74 23 -95 26 -24 1 25 2 54 2 63 1 10 -6 19 -14 21
-12 2 -15 -9 -14 -60z"/>
<path d="M7646 745 c-20 -21 -21 -79 -1 -95 19 -16 34 -5 17 12 -7 7 -12 24
-12 38 0 14 5 31 12 38 6 6 9 14 6 17 -3 3 -13 -1 -22 -10z"/>
<path d="M7736 731 c11 -22 12 -35 4 -56 -13 -34 -3 -47 16 -21 19 26 18 71
-2 90 -25 25 -34 19 -18 -13z"/>
<path d="M7926 745 c-28 -29 -14 -105 20 -105 12 0 12 4 -3 26 -14 22 -15 31
-5 57 14 37 10 44 -12 22z"/>
<path d="M8202 698 c2 -36 7 -62 13 -61 14 3 24 106 11 115 -23 16 -27 6 -24
-54z"/>
<path d="M4390 685 c-18 -22 -8 -50 20 -53 18 -2 21 0 11 7 -8 5 -12 19 -9 35
6 29 -3 34 -22 11z"/>
<path d="M5630 685 c-18 -22 -8 -50 20 -53 24 -3 24 -3 6 11 -15 11 -17 17 -7
35 13 25 0 30 -19 7z"/>
<path d="M6656 684 c-9 -8 -16 -19 -16 -23 0 -12 23 -31 38 -31 12 0 12 3 2
15 -6 8 -9 23 -5 35 8 24 2 25 -19 4z"/>
<path d="M7160 650 c0 -5 5 -10 11 -10 5 0 7 5 4 10 -3 6 -8 10 -11 10 -2 0
-4 -4 -4 -10z"/>
<path d="M6920 646 c0 -2 7 -7 16 -10 8 -3 12 -2 9 4 -6 10 -25 14 -25 6z"/>
<path d="M551 631 c-21 -14 0 -35 48 -50 28 -8 45 -22 60 -47 12 -19 21 -37
21 -39 0 -2 -25 -4 -56 -4 -66 0 -87 -13 -61 -39 25 -24 114 -22 211 6 106 31
128 45 56 37 l-55 -6 32 20 c39 24 50 54 30 85 -14 21 -26 24 -119 29 -57 4
-114 9 -128 12 -14 3 -31 1 -39 -4z m229 -57 c-6 -14 -10 -39 -10 -55 0 -22
-5 -29 -20 -29 -14 0 -20 7 -20 23 0 12 -3 32 -6 44 -5 18 -1 25 17 32 42 17
50 14 39 -15z"/>
<path d="M1846 585 c-4 -22 -12 -67 -19 -100 -12 -60 -13 -60 -50 -63 -44 -4
-51 -30 -15 -54 l22 -15 -54 -89 c-29 -49 -67 -107 -84 -128 -24 -32 -26 -37
-9 -28 30 16 111 110 153 176 40 63 50 69 86 56 35 -14 25 -41 -37 -105 -27
-28 -49 -56 -49 -62 0 -18 39 -35 64 -29 29 7 171 145 178 173 10 37 -16 60
-85 73 -90 17 -92 19 -78 73 15 62 14 119 -3 142 -13 18 -15 17 -20 -20z"/>
<path d="M1055 540 c-17 -28 37 -74 100 -86 22 -4 43 -11 46 -16 3 -5 21 5 39
22 19 18 29 34 24 39 -9 8 -169 51 -191 51 -7 0 -15 -4 -18 -10z"/>
<path d="M1443 533 c-39 -7 -28 -40 26 -79 44 -30 51 -41 57 -79 3 -25 4 -50
1 -57 -2 -7 -34 -24 -71 -36 -36 -13 -69 -28 -72 -34 -4 -6 4 -19 17 -29 38
-29 165 -27 210 4 49 33 50 61 2 73 -37 9 -38 10 -39 57 -1 36 2 47 14 47 27
0 102 41 102 56 0 49 -149 96 -247 77z"/>
<path d="M850 399 c-19 -5 -74 -8 -122 -7 -48 1 -90 -1 -94 -4 -7 -8 31 -121
54 -161 10 -16 29 -31 45 -34 32 -6 35 -19 7 -28 -11 -3 -20 -10 -20 -15 0
-17 52 -21 123 -11 15 2 6 21 -10 21 -10 0 -25 5 -33 10 -12 8 -11 13 7 38 22
29 22 30 3 35 -11 3 -20 12 -20 21 0 22 30 33 41 15 15 -23 89 62 89 101 0 33
-7 35 -70 19z m10 -59 c0 -16 -23 -22 -71 -18 l-44 3 35 12 c45 15 80 16 80 3z
m-100 -86 c0 -19 -5 -24 -24 -24 -24 0 -24 1 -9 30 16 34 33 31 33 -6z"/>
<path d="M1140 339 c0 -19 -5 -21 -50 -17 -27 1 -51 -1 -52 -6 -2 -5 23 -19
54 -30 31 -12 60 -25 64 -28 10 -11 -5 -76 -23 -93 -9 -9 -12 -20 -7 -25 8 -8
45 -14 70 -11 17 2 34 48 34 96 0 32 4 45 14 45 8 0 24 9 37 20 l24 19 -44 1
c-31 0 -54 7 -77 25 -40 30 -44 31 -44 4z"/>
<path d="M658 101 c-34 -10 -39 -24 -17 -48 26 -26 58 -29 97 -9 15 8 56 20
90 27 69 14 78 25 30 34 -34 6 -175 3 -200 -4z"/>
</g>
</svg>
